<?xml version="1.0" encoding="UTF-8"?>
<svg enable-background="new 0 0 256 256" version="1.1" viewBox="0 0 256 256" xmlns="http://www.w3.org/2000/svg">
 <style type="text/css">.st0{fill:url(#SVGID_1_);}
	.st1{fill:url(#SVGID_00000070796889141640006560000004020425850326399105_);}
	.st2{fill:url(#SVGID_00000092454070261973359340000010544459563622681264_);}</style>
 <linearGradient id="SVGID_1_" x1="212.66" x2="132.88" y1="171.72" y2="133.43" gradientUnits="userSpaceOnUse">
  <stop stop-color="#00D266" offset="0"/>
  <stop stop-color="#02CD67" offset=".2671"/>
  <stop stop-color="#07BE68" offset=".5918"/>
  <stop stop-color="#10A56B" offset=".9452"/>
  <stop stop-color="#12A16C" offset="1"/>
 </linearGradient>
 <path class="st0" d="m234.69 116.23c0 67.72-50.9 123.56-116.53 131.33-1 0.12-2 0.23-3 0.33-6.25 0.61-12.59-1.2-17.34-5.3-4.9-4.23-8-10.48-8-17.46 0-3.49 0.67-6.46 2.17-9.75l0.7-1.39 78.96-157.1c4.25-9.93 13.15-17.15 24.32-17.15 9.62 0 18.13 5.3 22.58 13.15 0.11 0.22 0.23 0.43 0.35 0.65 10.08 18.65 15.79 40 15.79 62.69z"/>
 <linearGradient id="SVGID_00000140730289004951248710000005348817437055274121_" x1="30.856" x2="117.69" y1="83.994" y2="124.69" gradientUnits="userSpaceOnUse">
  <stop stop-color="#00D266" offset="0"/>
  <stop stop-color="#06C168" offset=".3479"/>
  <stop stop-color="#12A16C" offset=".8575"/>
 </linearGradient>
 <path d="m162.11 34.14c0 3.73-0.77 7.28-2.18 10.49l-1.43 2.83-81.05 160.17c-4.12 8.07-11.69 13.92-21.18 13.92-5.32 0-10.21-1.8-14.1-4.82-1.49-1.15-2.75-2.57-3.79-4.14-1.25-1.88-2.45-3.8-3.6-5.75-0.01-0.01-0.01-0.01-0.01-0.02-11.66-19.71-18.35-42.7-18.35-67.25 0-67.34 50.33-122.93 115.42-131.21h0.01c0.9-0.12 1.8-0.23 2.71-0.31 0.54-0.04 1.09-0.06 1.65-0.06 14.31 0.01 25.9 11.71 25.9 26.15z" fill="url(#SVGID_00000140730289004951248710000005348817437055274121_)"/>
</svg>
