<?xml version="1.0" encoding="UTF-8"?>
<svg width="150" height="58" version="1.1" viewBox="0 0 150 58" xmlns="http://www.w3.org/2000/svg" fill="none">
 <linearGradient id="bean_l" x1="511.62" x2="387.03" y1="1025.3" y2="965.51" gradientTransform="matrix(.094361 0 0 .094361 -19.361 -62.624)" gradientUnits="userSpaceOnUse">
  <stop stop-color="#00D266" offset="0"/>
  <stop stop-color="#02CD67" offset=".2671"/>
  <stop stop-color="#07BE68" offset=".5918"/>
  <stop stop-color="#10A56B" offset=".9452"/>
  <stop stop-color="#12A16C" offset="1"/>
 </linearGradient>
 <path d="m32.162 25.948c0 9.9796-7.4998 18.207-17.171 19.352-0.1472 0.0179-0.29441 0.034-0.44255 0.0481-0.92191 0.0896-1.8551-0.17646-2.5553-0.78131-0.72186-0.62278-1.1786-1.5447-1.1786-2.5723 0-0.51427 0.0991-0.9521 0.31989-1.4371l0.10285-0.20476 11.636-23.151c0.62562-1.4635 1.9372-2.527 3.5838-2.527 1.4173 0 2.6714 0.78131 3.3281 1.9382 0.017 0.0321 0.034 0.0632 0.0519 0.0953 1.4834 2.7506 2.3251 5.8966 2.3251 9.2398z" fill="url(#bean_l)"/>
 <linearGradient id="bean_r" x1="227.71" x2="363.32" y1="888.31" y2="951.87" gradientTransform="matrix(.094361 0 0 .094361 -19.361 -62.624)" gradientUnits="userSpaceOnUse">
  <stop stop-color="#00D266" offset="0"/>
  <stop stop-color="#06C168" offset=".3479"/>
  <stop stop-color="#12A16C" offset=".8575"/>
 </linearGradient>
 <path d="m21.467 13.852c0 0.55012-0.11323 1.0719-0.32082 1.5456l-0.21043 0.41614-11.943 23.603c-0.60768 1.189-1.7221 2.0514-3.1205 2.0514-0.78319 0-1.5041-0.26421-2.0778-0.7096-0.21892-0.16985-0.40481-0.37933-0.55862-0.61051-0.18401-0.27648-0.36046-0.55956-0.53031-0.84642-9.4e-4 -9.5e-4 -9.4e-4 -9.5e-4 -9.4e-4 -3e-3 -1.7183-2.9035-2.7044-6.292-2.7044-9.9098 0-9.923 7.4158-18.114 17.008-19.334h9.5e-4c0.13305-0.0179 0.26515-0.034 0.39914-0.0462 0.0802-7e-3 0.16136-9e-3 0.24346-9e-3 2.108 0 3.816 1.7249 3.816 3.8528z" fill="url(#bean_r)"/>
 <path d="m63.659 20.04-1.155 1.7891h-3.7603c-1.4277 0-2.7195 0.40764-3.6027 1.5862l-6.8421 9.4248c-0.3397 0.45387-0.61146 0.99645-0.61146 1.5626 0 0.70299 0.52087 1.406 1.2465 1.406h4.5312l-1.1559 1.7891h-3.9877c-3.013 0-5.2568-1.6551-5.2568-4.8256 0-1.6306 0.54446-3.33 1.2012-4.7794 2.243-4.9841 7.0686-7.9527 12.507-7.9527z"/>
 <path d="m78.733 29.102c-2.7195 5.4361-7.8622 8.9709-14.025 8.9709-3.3526 0-6.4335-1.8353-6.4335-5.4824 0-1.3814 0.42935-2.6732 1.0418-3.9198 3.0818-6.1618 7.8169-8.6095 14.522-8.6095 3.0582 0 6.0721 1.3814 6.0721 4.8256 0 1.4739-0.52088 2.878-1.1776 4.2151zm-4.8709-7.5668c-0.9974 0-2.4921 0.56617-3.1035 1.4041l-7.613 10.557c-0.27082 0.36329-0.47464 0.79358-0.47464 1.2692 0 0.90586 0.7247 1.54 1.6089 1.54 1.155 0 2.3552-0.77093 3.012-1.6551l7.7942-10.624c0.20382-0.29535 0.36234-0.63505 0.36234-0.99834-9.4e-4 -0.83604-0.77092-1.4928-1.5862-1.4928z"/>
 <path d="m100.88 20.061-1.2692 1.6768h-5.8683l-3.4885 4.7577h5.958l-1.3362 1.7447h-5.8447l-6.6609 9.3568h-6.4798l11.109-15.409c0.96248-1.3352 2.5081-2.1269 4.1547-2.1269z"/>
 <path d="m117 20.061-1.2692 1.6768h-5.8674l-3.4895 4.7577h5.958l-1.3362 1.7447h-5.8457l-6.66 9.3568h-6.4798l11.109-15.409c0.96248-1.3352 2.5081-2.1269 4.1547-2.1269z"/>
 <path d="m133.16 20.061-1.3362 1.6768h-5.7777l-3.4206 4.7577h6.0268l-1.3362 1.7447h-6.0721l-5.3918 7.6112h7.9744l-1.3362 1.7447h-14.386l11.175-15.42c0.96342-1.3296 2.5053-2.1165 4.1472-2.1165h9.7333z"/>
 <path d="m150 20.061-1.3362 1.6768h-5.7777l-3.4206 4.7577h6.0268l-1.3362 1.7447h-6.0721l-5.3918 7.6112h7.9744l-1.3362 1.7447h-14.386l11.175-15.42c0.96342-1.3296 2.5053-2.1165 4.1472-2.1165h9.7333z"/>
</svg>
